PathFileType	3	(X/Y/Z)	D:\Vicon Setup\UG\Test1\New Session\NewSession10.trc
DataRate	CameraRate	NumFrames	NumMarkers	Units	OrigDataRate	OrigDataStartFrame	OrigNumFrames
100.0	100.0	5	27	mm	100.0	702	353	
Frame#	Time	Sternum			LShoulder			RShoulder			LASIS			RASIS			RPSIS			LPSIS			RKneeLateral			RKneeMedial			RFibulaHead			RMidShank			RAnkleLateral			RAnkleMedial			RHeel			RMT5			RMT2			RToe			LKneeLateral			LKneeMedial			LFibulaHead			LMidShank			LAnkleLateral			LAnkleMedial			LHeel			LMT5			LMT2			LToe			
		X1	Y1	Z1	X2	Y2	Z2	X3	Y3	Z3	X4	Y4	Z4	X5	Y5	Z5	X6	Y6	Z6	X7	Y7	Z7	X8	Y8	Z8	X9	Y9	Z9	X10	Y10	Z10	X11	Y11	Z11	X12	Y12	Z12	X13	Y13	Z13	X14	Y14	Z14	X15	Y15	Z15	X16	Y16	Z16	X17	Y17	Z17	X18	Y18	Z18	X19	Y19	Z19	X20	Y20	Z20	X21	Y21	Z21	X22	Y22	Z22	X23	Y23	Z23	X24	Y24	Z24	X25	Y25	Z25	X26	Y26	Z26	X27	Y27	Z27	
702	7.01	-284.89352	1373.3126	475.66888	-100.8515	1450.1011	374.8624	-469.03528	1407.756	397.31656	-156.93668	998.58221	422.9574	-413.53241	1014.4995	423.60144	-344.27487	1024.9005	249.91631	-213.94235	1014.9343	245.37805	-417.405	530.60699	391.58554	-285.84729	516.63623	419.08115	-414.63428	446.9296	387.23065	-321.42264	288.4892	406.80527	-359.91589	90.172295	339.94852	-286.28906	124.77285	390.453	-297.73434	66.31575	274.45218	-406.13367	26.291735	488.61844	-340.25757	61.832989	495.64526	-331.59042	46.63203	547.82025	-85.825005	545.0285	502.71213	-209.36707	520.9101	543.35596	-84.318901	501.66296	468.47351	-163.65126	358.85049	417.20636	-140.89258	242.86798	231.65515	-207.87868	222.39345	291.19315	-219.97365	265.15912	181.47662	-78.949028	109.01694	258.24121	-132.35345	107.10511	306.72592	-117.88973	54.410309	333.78812
703	7.02	-285.21689	1374.6503	488.47491	-101.9371	1451.2988	386.44446	-469.94809	1409.2542	411.49377	-158.15289	1000.5038	435.57571	-414.62701	1015.0698	436.35297	-344.93253	1026.1099	262.67279	-214.6174	1016.4908	258.07178	-416.96082	531.50665	395.40814	-285.37744	517.10303	423.48132	-414.20206	447.76413	389.98602	-321.31601	288.97119	408.92578	-359.815	90.928223	340.57443	-286.27222	125.27993	391.33621	-297.66693	67.49868	274.97354	-406.18057	26.212919	488.6701	-340.29453	61.692272	496.01053	-331.67227	46.300831	548.0238	-87.654747	549.229	524.84973	-211.02721	527.0636	566.03522	-85.838615	504.29111	492.12375	-165.13397	359.44891	446.44159	-141.77083	235.10741	265.57693	-208.83093	217.9175	326.31219	-220.48979	254.05672	213.99435	-79.455132	103.56441	300.82968	-132.97307	104.47058	348.96204	-118.46599	53.621353	379.36185
704	7.03	-285.50827	1375.6859	501.28473	-102.96821	1452.1967	398.13635	-470.80338	1410.4491	425.60812	-159.34344	1002.0044	448.28836	-415.74185	1015.4031	448.94226	-345.3266	1027.0051	275.32251	-215.03276	1017.6984	270.81528	-416.55411	532.37665	399.31677	-284.9447	517.625	427.85147	-413.8096	448.59967	392.81659	-321.20746	289.46896	411.00052	-359.74786	91.715286	341.20914	-286.25934	125.78763	392.19595	-297.60596	68.704254	275.52991	-406.22458	26.114193	488.71536	-340.34305	61.54071	496.36337	-331.74673	45.961319	548.21222	-89.587997	552.98926	546.12714	-212.81339	532.83704	587.10229	-87.482529	506.26392	515.10608	-166.82773	359.56479	475.45169	-142.63791	226.43552	300.36926	-209.96878	212.86006	361.83264	-220.79494	241.66425	247.1805	-80.111206	97.884583	344.84198	-133.93416	101.79974	392.29803	-119.51526	53.191921	426.20883
705	7.04	-285.77283	1376.3884	514.10992	-103.93808	1452.7753	409.98639	-471.59363	1411.348	439.65796	-160.5065	1003.0737	461.1535	-416.86386	1015.5079	461.37085	-345.48987	1027.6016	287.88776	-215.21422	1018.5538	283.61746	-416.19617	533.19159	403.37204	-284.64041	518.16193	432.35706	-413.45303	449.42056	395.77936	-321.07132	289.98212	413.05637	-359.70697	92.527878	341.85355	-286.22086	126.27773	393.00723	-297.57294	69.945206	276.08511	-406.25534	26.000643	488.75363	-340.39575	61.383125	496.71048	-331.80698	45.60107	548.3833	-91.603088	556.26947	566.56787	-214.74911	538.13373	606.64618	-89.247887	507.58981	537.43774	-168.68027	359.19727	504.26978	-143.47311	216.9644	336.11783	-211.23795	207.27048	397.86588	-220.94556	228.14479	281.18756	-80.898041	92.160065	390.08264	-135.18251	99.191078	436.55563	-120.94645	53.201298	474.00449
706	7.05	-286.01859	1376.7419	526.96692	-104.83894	1453.0195	422.02814	-472.31073	1411.9672	453.6427	-161.64706	1003.6996	474.17505	-417.98801	1015.3922	473.66821	-345.46646	1027.9197	300.39716	-215.20215	1019.0651	296.48038	-415.88528	533.93781	407.58286	-284.52469	518.65704	437.06784	-413.12714	450.21268	398.9021	-320.89758	290.5004	415.12109	-359.68347	93.356949	342.50845	-286.14685	126.74033	393.76086	-297.58102	71.226555	276.61499	-406.26703	25.87838	488.78549	-340.44485	61.230721	497.06403	-331.849	45.210529	548.53534	-93.67878	559.03058	586.21997	-216.84062	542.86285	624.86719	-91.112198	508.27725	559.138	-170.66405	358.37018	532.91016	-144.26416	206.82239	372.8367	-212.57002	201.21219	434.51614	-221.02594	213.71118	316.16425	-81.78141	86.55323	436.28116	-136.62054	96.732613	481.52289	-122.62564	53.702435	522.39948
